<?xml version="1.0" encoding="UTF-8"?>
<svg width="42px" height="43px" viewBox="0 0 42 43" version="1.1" xmlns="http://www.w3.org/2000/svg" xmlns:xlink="http://www.w3.org/1999/xlink">
    <!-- Generator: Sketch 63.1 (92452) - https://sketch.com -->
    <title>Group 2</title>
    <desc>Created with Sketch.</desc>
    <g id="Page-1" stroke="none" stroke-width="1" fill="none" fill-rule="evenodd">
        <g id="HOME---POS01-Copy-2" transform="translate(-667.000000, -454.000000)">
            <g id="Group-7" transform="translate(0.000000, 70.000000)">
                <g id="Group-2" transform="translate(668.000000, 385.500000)">
                    <g id="PIC-Doc-Image-Copy-3" transform="translate(9.000000, 11.000000)" fill="#AEAEAE">
                        <g id="Group-8">
                            <g id="Group" transform="translate(-0.000000, 0.000000)">
                                <path d="M11,6 C13.4848743,6 15.5,8.01555508 15.5,10.5009589 C15.5,12.9863627 13.4848743,15 11,15 C8.51512569,15 6.5,12.9863627 6.5,10.5009589 C6.5,8.01555508 8.51512569,6 11,6" id="Fill-1"></path>
                                <path d="M11,15.8333333 C7.96386199,15.8333333 5.49924997,13.4684091 5.49924997,10.5550758 C5.49924997,7.64318182 7.96386199,5.27825758 11,5.27825758 C14.036138,5.27825758 16.50075,7.64318182 16.50075,10.5550758 C16.50075,13.4684091 14.036138,15.8333333 11,15.8333333 L11,15.8333333 Z M7.69984999,0 L5.68675849,2.11159091 L2.19909996,2.11159091 C0.990045002,2.11159091 0,3.06159091 0,4.22318182 L0,16.8884091 C0,18.05 0.990045002,19 2.19909996,19 L19.8009,19 C21.009955,19 22,18.05 22,16.8884091 L22,4.22318182 C22,3.06159091 21.009955,2.11159091 19.8009,2.11159091 L16.3132415,2.11159091 L14.30015,0 L7.69984999,0 Z" id="Fill-3"></path>
                            </g>
                        </g>
                    </g>
                    <rect id="Rectangle-Copy-2" stroke="#AEAEAE" x="-0.5" y="-0.5" width="41" height="41" rx="4"></rect>
                </g>
            </g>
        </g>
    </g>
</svg>