<?xml version="1.0" encoding="UTF-8"?>
<svg width="29px" height="18px" viewBox="0 0 29 18" version="1.1" xmlns="http://www.w3.org/2000/svg" xmlns:xlink="http://www.w3.org/1999/xlink">
    <title>b_voir 2</title>
    <g id="Page-1" stroke="none" stroke-width="1" fill="none" fill-rule="evenodd">
        <g id="Pour-intégration" transform="translate(-134.000000, -1151.000000)" fill="#C00055">
            <g id="b_voir-2" transform="translate(134.000000, 1151.000000)">
                <path d="M14.4487554,0 C22.165527,0 28.2502689,7.91715308 28.506492,8.25381284 L29,8.90679721 L28.5399124,9.58463566 C28.3037415,9.93033327 22.7191918,18 14.7205747,18 C14.661532,18 14.6036033,18 14.5434465,17.9988703 C6.88521448,17.8849132 1.29605997,10.9011955 0.565744256,9.94231712 L0.508333333,9.86607568 C0.501592703,9.85699776 0.496275056,9.84977618 0.492393977,9.84447373 L0,9.17680286 L0.486823909,8.50235361 C0.737476951,8.15439654 6.71527351,0 14.4487554,0 Z M14.4989417,4 C12.0129351,4 10,6.23685758 10,8.99823592 C10,11.7607903 12.0129351,14 14.4989417,14 C16.9849483,14 19,11.7607903 19,8.99823592 C19,6.23685758 16.9849483,4 14.4989417,4 Z" id="Combined-Shape"></path>
            </g>
        </g>
    </g>
</svg>