<?xml version="1.0" encoding="UTF-8"?>
<svg width="25px" height="25px" viewBox="0 0 25 25" version="1.1" xmlns="http://www.w3.org/2000/svg" xmlns:xlink="http://www.w3.org/1999/xlink">
    <title>b_bouge</title>
    <g id="Page-1" stroke="none" stroke-width="1" fill="none" fill-rule="evenodd">
        <g id="Pour-intégration" transform="translate(-183.000000, -1148.000000)" fill="#C00055" fill-rule="nonzero">
            <g id="b_bouge" transform="translate(183.000000, 1148.000000)">
                <path d="M13.6031924,0.457718973 C12.9930196,-0.152572991 12.002099,-0.152572991 11.3919262,0.457718973 L8.26784145,3.58241383 C7.81875427,4.03158871 7.68695695,4.7004687 7.93102607,5.28634899 C8.17509519,5.87222927 8.74133555,6.25305146 9.37591526,6.25305146 L10.9379576,6.25305146 L10.9379576,10.9400937 L6.25183052,10.9400937 L6.25183052,9.37286398 C6.25183052,8.74304267 5.87108269,8.17180939 5.2853168,7.92769261 C4.69955091,7.68357582 4.03080152,7.82028122 3.58171434,8.26457377 L0.457629601,11.3892686 C-0.1525432,11.9995606 -0.1525432,12.9906747 0.457629601,13.6009667 L3.58171434,16.7256616 C4.03080152,17.1748364 4.69955091,17.3066595 5.2853168,17.0625427 C5.87108269,16.8184259 6.25183052,16.252075 6.25183052,15.6173714 L6.25183052,14.0599063 L10.9379576,14.0599063 L10.9379576,18.7469485 L9.37591526,18.7469485 C8.74621693,18.7469485 8.17509519,19.1277707 7.93102607,19.713651 C7.68695695,20.2995313 7.82363565,20.9684113 8.26784145,21.4175862 L11.3919262,24.542281 C12.002099,25.152573 12.9930196,25.152573 13.6031924,24.542281 L16.7272772,21.4175862 C17.1763643,20.9684113 17.3081617,20.2995313 17.0640926,19.713651 C16.8200234,19.1277707 16.2537831,18.7469485 15.6192034,18.7469485 L14.0620424,18.7469485 L14.0620424,14.0599063 L18.7481695,14.0599063 L18.7481695,15.6222537 C18.7481695,16.252075 19.1289173,16.8233083 19.7146832,17.0674251 C20.3004491,17.3115418 20.9691985,17.1748364 21.4182857,16.7305439 L24.5423704,13.605849 C25.1525432,12.9955571 25.1525432,12.0044429 24.5423704,11.394151 L21.4182857,8.26945611 C20.9691985,7.82028122 20.3004491,7.68845816 19.7146832,7.93257494 C19.1289173,8.17669173 18.7481695,8.74304267 18.7481695,9.37774631 L18.7481695,10.9400937 L14.0620424,10.9400937 L14.0620424,6.24816912 L15.6240847,6.24816912 C16.2537831,6.24816912 16.8249048,5.86734694 17.0689739,5.28146665 C17.3130431,4.69558637 17.1763643,4.02670638 16.7321585,3.57753149 L13.6080738,0.452836637 L13.6031924,0.457718973 Z" id="move"></path>
            </g>
        </g>
    </g>
</svg>