<?xml version="1.0" encoding="UTF-8"?>
<svg width="25px" height="25px" viewBox="0 0 25 25" version="1.1" xmlns="http://www.w3.org/2000/svg" xmlns:xlink="http://www.w3.org/1999/xlink">
    <title>b_supp 2</title>
    <g id="Page-1" stroke="none" stroke-width="1" fill="none" fill-rule="evenodd">
        <g id="Pour-intégration" transform="translate(-93.000000, -1148.000000)" fill="#C00055" fill-rule="nonzero">
            <g id="b_supp-2" transform="translate(93.000000, 1148.000000)">
                <path d="M6.61810777,0.864257812 C6.88244048,0.33203125 7.42579104,0 8.01809211,0 L13.9117325,0 C14.5040335,0 15.0473841,0.33203125 15.3117168,0.864257812 L15.6641604,1.5625 L20.3634085,1.5625 C21.2298324,1.5625 21.9298246,2.26074219 21.9298246,3.125 C21.9298246,3.98925781 21.2298324,4.6875 20.3634085,4.6875 L1.56641604,4.6875 C0.699992168,4.6875 0,3.98925781 0,3.125 C0,2.26074219 0.699992168,1.5625 1.56641604,1.5625 L6.26566416,1.5625 L6.61810777,0.864257812 Z M1.56641604,6.25 L20.3634085,6.25 L20.3634085,21.875 C20.3634085,23.5986328 18.9585291,25 17.2305764,25 L4.69924812,25 C2.97129543,25 1.56641604,23.5986328 1.56641604,21.875 L1.56641604,6.25 Z M6.26566416,9.375 C5.83489975,9.375 5.48245614,9.7265625 5.48245614,10.15625 L5.48245614,21.09375 C5.48245614,21.5234375 5.83489975,21.875 6.26566416,21.875 C6.69642857,21.875 7.04887218,21.5234375 7.04887218,21.09375 L7.04887218,10.15625 C7.04887218,9.7265625 6.69642857,9.375 6.26566416,9.375 Z M10.9649123,9.375 C10.5341479,9.375 10.1817043,9.7265625 10.1817043,10.15625 L10.1817043,21.09375 C10.1817043,21.5234375 10.5341479,21.875 10.9649123,21.875 C11.3956767,21.875 11.7481203,21.5234375 11.7481203,21.09375 L11.7481203,10.15625 C11.7481203,9.7265625 11.3956767,9.375 10.9649123,9.375 Z M15.6641604,9.375 C15.233396,9.375 14.8809524,9.7265625 14.8809524,10.15625 L14.8809524,21.09375 C14.8809524,21.5234375 15.233396,21.875 15.6641604,21.875 C16.0949248,21.875 16.4473684,21.5234375 16.4473684,21.09375 L16.4473684,10.15625 C16.4473684,9.7265625 16.0949248,9.375 15.6641604,9.375 Z" id="poubelle"></path>
            </g>
        </g>
    </g>
</svg>