<?xml version="1.0" encoding="UTF-8"?>
<svg width="18px" height="18px" viewBox="0 0 18 18" version="1.1" xmlns="http://www.w3.org/2000/svg" xmlns:xlink="http://www.w3.org/1999/xlink">
    <g id="Symbols" stroke="none" stroke-width="1" fill="none" fill-rule="evenodd">
        <g id="del-Filtre" fill="#8C8C8C" fill-rule="nonzero">
            <path d="M9,0 C13.9710937,0 18,4.02890625 18,9 C18,13.9710937 13.9710937,18 9,18 C4.02890625,18 0,13.9710937 0,9 C0,4.02890625 4.02890625,0 9,0 Z M11.840625,6.15234375 C11.5136719,5.821875 10.9792969,5.821875 10.6488281,6.15234375 L8.99648437,7.8046875 L7.34414062,6.15234375 C7.0171875,5.821875 6.4828125,5.821875 6.15234375,6.15234375 C5.821875,6.47929687 5.821875,7.01367187 6.15234375,7.34414062 L7.8046875,8.99648437 L6.15234375,10.6488281 C5.821875,10.9757812 5.82539062,11.5101562 6.15234375,11.840625 C6.47929687,12.1710937 7.01367187,12.1710937 7.34414062,11.840625 L8.99648437,10.1882812 L10.6488281,11.840625 C10.9757812,12.1710937 11.5101562,12.1675781 11.840625,11.840625 C12.1710937,11.5136719 12.1710937,10.9792969 11.840625,10.6488281 L10.1882812,8.99648437 L11.840625,7.34414062 C12.1710937,7.0171875 12.1675781,6.4828125 11.840625,6.15234375 Z" id="Combined-Shape"></path>
        </g>
    </g>
</svg>