<?xml version="1.0" encoding="UTF-8"?>
<svg width="25px" height="25px" viewBox="0 0 25 25" version="1.1" xmlns="http://www.w3.org/2000/svg" xmlns:xlink="http://www.w3.org/1999/xlink">
    <title>b_Edit 2</title>
    <g id="Page-1" stroke="none" stroke-width="1" fill="none" fill-rule="evenodd">
        <g id="Pour-intégration" transform="translate(-45.000000, -1148.000000)" fill="#C00055" fill-rule="nonzero">
            <g id="b_Edit-2" transform="translate(45.000000, 1148.000000)">
                <path d="M17.727526,0.916452894 L15.3618556,3.2821233 L21.715929,9.63619669 L24.0815994,7.27052629 C25.3035366,6.0485891 25.3035366,4.06905085 24.0815994,2.84711366 L22.1558264,0.916452894 C20.9338892,-0.305484298 18.954351,-0.305484298 17.7324138,0.916452894 L17.727526,0.916452894 Z M14.2572244,4.38675452 L2.86388202,15.7849846 C2.35555615,16.2933105 1.98408724,16.9238301 1.7788018,17.6130027 L0.0485387324,23.4929644 C-0.0736549868,23.9084231 0.0387632348,24.3532082 0.341803658,24.6562486 C0.644844082,24.9592891 1.08962922,25.0717073 1.50020012,24.9544013 L7.38016188,23.2241383 C8.06933446,23.0188528 8.69985405,22.6473839 9.20817992,22.139058 L20.6112978,10.7408279 L14.2572244,4.38675452 Z" id="pictoStylo"></path>
            </g>
        </g>
    </g>
</svg>