<?xml version="1.0" encoding="UTF-8"?>
<svg width="38px" height="38px" viewBox="0 0 38 38" version="1.1" xmlns="http://www.w3.org/2000/svg" xmlns:xlink="http://www.w3.org/1999/xlink">
    <title>b_supp 1</title>
    <g id="Page-1" stroke="none" stroke-width="1" fill="none" fill-rule="evenodd">
        <g id="Pour-intégration" transform="translate(-318.000000, -669.000000)">
            <g id="Group-6" transform="translate(318.000000, 669.000000)">
                <g id="Group-6-Copy" stroke="#C00055">
                    <rect id="Rectangle" x="0.5" y="0.5" width="37" height="37" rx="5"></rect>
                </g>
                <path d="M14.6181078,7.86425781 C14.8824405,7.33203125 15.425791,7 16.0180921,7 L21.9117325,7 C22.5040335,7 23.0473841,7.33203125 23.3117168,7.86425781 L23.6641604,8.5625 L28.3634085,8.5625 C29.2298324,8.5625 29.9298246,9.26074219 29.9298246,10.125 C29.9298246,10.9892578 29.2298324,11.6875 28.3634085,11.6875 L9.56641604,11.6875 C8.69999217,11.6875 8,10.9892578 8,10.125 C8,9.26074219 8.69999217,8.5625 9.56641604,8.5625 L14.2656642,8.5625 L14.6181078,7.86425781 Z M9.56641604,13.25 L28.3634085,13.25 L28.3634085,28.875 C28.3634085,30.5986328 26.9585291,32 25.2305764,32 L12.6992481,32 C10.9712954,32 9.56641604,30.5986328 9.56641604,28.875 L9.56641604,13.25 Z M14.2656642,16.375 C13.8348997,16.375 13.4824561,16.7265625 13.4824561,17.15625 L13.4824561,28.09375 C13.4824561,28.5234375 13.8348997,28.875 14.2656642,28.875 C14.6964286,28.875 15.0488722,28.5234375 15.0488722,28.09375 L15.0488722,17.15625 C15.0488722,16.7265625 14.6964286,16.375 14.2656642,16.375 Z M18.9649123,16.375 C18.5341479,16.375 18.1817043,16.7265625 18.1817043,17.15625 L18.1817043,28.09375 C18.1817043,28.5234375 18.5341479,28.875 18.9649123,28.875 C19.3956767,28.875 19.7481203,28.5234375 19.7481203,28.09375 L19.7481203,17.15625 C19.7481203,16.7265625 19.3956767,16.375 18.9649123,16.375 Z M23.6641604,16.375 C23.233396,16.375 22.8809524,16.7265625 22.8809524,17.15625 L22.8809524,28.09375 C22.8809524,28.5234375 23.233396,28.875 23.6641604,28.875 C24.0949248,28.875 24.4473684,28.5234375 24.4473684,28.09375 L24.4473684,17.15625 C24.4473684,16.7265625 24.0949248,16.375 23.6641604,16.375 Z" id="poubelle-copy-2" fill="#C00055" fill-rule="nonzero"></path>
            </g>
        </g>
    </g>
</svg>