<?xml version="1.0" encoding="UTF-8"?>
<svg width="40px" height="32px" viewBox="0 0 40 32" version="1.1" xmlns="http://www.w3.org/2000/svg" xmlns:xlink="http://www.w3.org/1999/xlink">
    <title>Guillemet</title>
    <g id="Page-1" stroke="none" stroke-width="1" fill="none" fill-rule="evenodd">
        <g id="Pour-intégration" transform="translate(-215.000000, -670.000000)" fill="#CB2158">
            <g id="Fill-1" transform="translate(215.000000, 670.000000)">
                <path d="M38.24,1.73210463 C30.011858,3.46495392 24.971858,10.1908219 24.8688935,18.548264 L25.074071,18.548264 C26.72,16.6113748 29.1888935,15.4906451 31.8629645,15.4906451 C37.1088935,15.4906451 39.68,19.1588942 39.68,23.7453225 C39.68,28.1277111 36.1829645,32 31.451858,32 C25.794071,32 22.4,27.7196314 22.4,20.5856837 C22.4,9.98678209 27.954071,1.93614447 38.24,0 L38.24,1.73210463 Z M15.84,1.73210463 C7.61110647,3.46495392 2.57110647,10.1908219 2.46889353,18.548264 L2.67482255,18.548264 C4.32,16.6113748 6.78889353,15.4906451 9.46296451,15.4906451 C14.7088935,15.4906451 17.28,19.1588942 17.28,23.7453225 C17.28,28.1277111 13.7829645,32 9.05110647,32 C3.39482255,32 0,27.7196314 0,20.5856837 C0,9.98678209 5.55482255,1.93614447 15.84,0 L15.84,1.73210463 Z"></path>
            </g>
        </g>
    </g>
</svg>