<?xml version="1.0" encoding="UTF-8"?>
<svg width="24px" height="24px" viewBox="0 0 24 24" version="1.1" xmlns="http://www.w3.org/2000/svg" xmlns:xlink="http://www.w3.org/1999/xlink">
    <title>close Filtre</title>
    <g id="Page-1" stroke="none" stroke-width="1" fill="none" fill-rule="evenodd">
        <g id="Pour-intégration" transform="translate(-276.000000, -870.000000)">
            <g id="Group-14" transform="translate(276.000000, 870.000000)">
                <circle id="Oval" fill="#C3C3C3" cx="12" cy="12" r="6"></circle>
                <path d="M12,24 C18.628125,24 24,18.628125 24,12 C24,5.371875 18.628125,0 12,0 C5.371875,0 0,5.371875 0,12 C0,18.628125 5.371875,24 12,24 Z M8.203125,8.203125 C8.64375,7.7625 9.35625,7.7625 9.7921875,8.203125 L11.9953125,10.40625 L14.1984375,8.203125 C14.6390625,7.7625 15.3515625,7.7625 15.7875,8.203125 C16.2234375,8.64375 16.228125,9.35625 15.7875,9.7921875 L13.584375,11.9953125 L15.7875,14.1984375 C16.228125,14.6390625 16.228125,15.3515625 15.7875,15.7875 C15.346875,16.2234375 14.634375,16.228125 14.1984375,15.7875 L11.9953125,13.584375 L9.7921875,15.7875 C9.3515625,16.228125 8.6390625,16.228125 8.203125,15.7875 C7.7671875,15.346875 7.7625,14.634375 8.203125,14.1984375 L10.40625,11.9953125 L8.203125,9.7921875 C7.7625,9.3515625 7.7625,8.6390625 8.203125,8.203125 L8.203125,8.203125 Z" id="pic_del-copy-4" fill="#FFFFFF" fill-rule="nonzero"></path>
            </g>
        </g>
    </g>
</svg>