<?xml version="1.0" encoding="UTF-8"?>
<svg width="28px" height="24px" viewBox="0 0 28 24" version="1.1" xmlns="http://www.w3.org/2000/svg" xmlns:xlink="http://www.w3.org/1999/xlink">
    <title>Group 11</title>
    <g id="Symbols" stroke="none" stroke-width="1" fill="none" fill-rule="evenodd">
        <g id="pic-Collec" fill="#6D7278" fill-rule="nonzero">
            <g id="Group-11">
                <path d="M2.70967742,5.41935484 C4.20564516,5.41935484 5.41935484,4.20564516 5.41935484,2.70967742 C5.41935484,1.21370968 4.20564516,3.64153152e-14 2.70967742,3.64153152e-14 C1.21370968,3.64153152e-14 -1.90514271e-13,1.21370968 -1.90514271e-13,2.70967742 C-1.90514271e-13,4.20564516 1.21370968,5.41935484 2.70967742,5.41935484 Z" id="Path"></path>
                <path d="M9.93548387,0.903225806 C8.93629032,0.903225806 8.12903226,1.71048387 8.12903226,2.70967742 C8.12903226,3.70887097 8.93629032,4.51612903 9.93548387,4.51612903 L26.1935484,4.51612903 C27.1927419,4.51612903 28,3.70887097 28,2.70967742 C28,1.71048387 27.1927419,0.903225806 26.1935484,0.903225806 L9.93548387,0.903225806 Z" id="Path"></path>
                <path d="M9.93548387,9.93548387 C8.93629032,9.93548387 8.12903226,10.7427419 8.12903226,11.7419355 C8.12903226,12.741129 8.93629032,13.5483871 9.93548387,13.5483871 L26.1935484,13.5483871 C27.1927419,13.5483871 28,12.741129 28,11.7419355 C28,10.7427419 27.1927419,9.93548387 26.1935484,9.93548387 L9.93548387,9.93548387 Z" id="Path"></path>
                <path d="M9.93548387,18.9677419 C8.93629032,18.9677419 8.12903226,19.775 8.12903226,20.7741935 C8.12903226,21.7733871 8.93629032,22.5806452 9.93548387,22.5806452 L26.1935484,22.5806452 C27.1927419,22.5806452 28,21.7733871 28,20.7741935 C28,19.775 27.1927419,18.9677419 26.1935484,18.9677419 L9.93548387,18.9677419 Z" id="Path"></path>
                <path d="M2.70967742,23.483871 C4.20564516,23.483871 5.41935484,22.2701613 5.41935484,20.7741935 C5.41935484,19.2782258 4.20564516,18.0645161 2.70967742,18.0645161 C1.21370968,18.0645161 -1.90514271e-13,19.2782258 -1.90514271e-13,20.7741935 C-1.90514271e-13,22.2701613 1.21370968,23.483871 2.70967742,23.483871 Z" id="Path"></path>
                <path d="M5.41935484,11.7419355 C5.41935484,10.2459677 4.20564516,9.03225806 2.70967742,9.03225806 C1.21370968,9.03225806 -1.90514271e-13,10.2459677 -1.90514271e-13,11.7419355 C-1.90514271e-13,13.2379032 1.21370968,14.4516129 2.70967742,14.4516129 C4.20564516,14.4516129 5.41935484,13.2379032 5.41935484,11.7419355 Z" id="Path"></path>
            </g>
        </g>
    </g>
</svg>