<?xml version="1.0" encoding="UTF-8"?>
<svg width="34px" height="31px" viewBox="0 0 34 31" version="1.1" xmlns="http://www.w3.org/2000/svg" xmlns:xlink="http://www.w3.org/1999/xlink">
    <title>form_ajoutNote Copy</title>
    <defs>
        <polygon id="path-1" points="-5.32907052e-14 0.000327738265 35.3453727 0.000327738265 35.3453727 32.0003277 -5.32907052e-14 32.0003277"></polygon>
    </defs>
    <g id="Page-1" stroke="none" stroke-width="1" fill="none" fill-rule="evenodd">
        <g id="Pour-intégration" transform="translate(-421.000000, -1293.000000)">
            <g id="Group" transform="translate(421.000000, 1293.000000)">
                <mask id="mask-2" fill="white">
                    <use xlink:href="#path-1"></use>
                </mask>
                <g id="Clip-2"></g>
                <path d="M16.5374999,-4.97379915e-14 C7.40435934,-4.97379915e-14 -6.39488462e-14,5.49273966 -6.39488462e-14,12.2674253 C-6.39488462e-14,15.7598079 1.97684374,18.9033356 5.1335156,21.1375404 L3.06249999,27.6017068 L9.87656245,23.4913527 C11.9154218,24.1583939 14.1655937,24.5348505 16.5374999,24.5348505 C25.6706405,24.5348505 33.0749998,19.0428776 33.0749998,12.2674253 C33.0749998,5.49273966 25.6706405,-4.97379915e-14 16.5374999,-4.97379915e-14" id="Fill-1" fill="#9B9B9B" mask="url(#mask-2)"></path>
                <path d="M19.894655,23.7480449 C19.894655,20.3478007 22.6518008,17.5906549 26.0530545,17.5906549 C29.4532987,17.5906549 32.2104445,20.3478007 32.2104445,23.7480449 C32.2104445,27.1492986 29.4532987,29.9064444 26.0530545,29.9064444 C22.6518008,29.9064444 19.894655,27.1492986 19.894655,23.7480449 Z" id="Stroke-6" stroke="#9B9B9B" stroke-width="2" fill="#FFFFFF" mask="url(#mask-2)"></path>
                <polygon id="Fill-8" fill="#9B9B9B" mask="url(#mask-2)" points="29.7472866 22.8251852 26.9759142 22.8251852 26.9759142 20.0538128 25.1291853 20.0538128 25.1291853 22.8251852 22.3578129 22.8251852 22.3578129 24.6719141 25.1291853 24.6719141 25.1291853 27.4432865 26.9759142 27.4432865 26.9759142 24.6719141 29.7472866 24.6719141"></polygon>
            </g>
        </g>
    </g>
</svg>