<?xml version="1.0" encoding="UTF-8"?>
<svg width="30px" height="23px" viewBox="0 0 30 23" version="1.1" xmlns="http://www.w3.org/2000/svg" xmlns:xlink="http://www.w3.org/1999/xlink">
    <title>form_Lien Copy</title>
    <g id="Page-1" stroke="none" stroke-width="1" fill="none" fill-rule="evenodd">
        <g id="Pour-intégration" transform="translate(-579.000000, -1297.000000)" fill="#9B9B9B">
            <g id="form_Lien-Copy" transform="translate(579.000000, 1297.000000)">
                <path d="M2.09051506,10.9278246 C-0.696838354,13.6908937 -0.696838354,18.1655986 2.09051506,20.9286677 C4.5571995,23.3738616 8.44469418,23.6917368 11.2813813,21.6817874 L11.3603152,21.6279931 C12.0707203,21.1242832 12.2335215,20.1462056 11.7253845,19.4468802 C11.2172475,18.7475547 10.2305737,18.5812815 9.52510196,19.0849915 L9.44616806,19.1387858 C7.86255665,20.2586846 5.69680771,20.0826306 4.32533116,18.7182124 C2.77131997,17.1728499 2.77131997,14.6787521 4.32533116,13.1382799 L9.86057105,7.64637441 C11.4145822,6.10590225 13.9306004,6.10590225 15.4846116,7.64637441 C16.8610215,9.01079261 17.0386228,11.1576729 15.9088813,12.7274873 L15.8546142,12.8057335 C15.3464772,13.5099494 15.5142118,14.4880269 16.2196835,14.9868465 C16.9251553,15.4856661 17.9167624,15.3242833 18.419966,14.6249578 L18.4742331,14.5467116 C20.5067811,11.7347386 20.1861121,7.88111302 17.7194277,5.43591912 C14.9320743,2.67285001 10.4180417,2.67285001 7.63068831,5.43591912 L2.09051506,10.9278246 Z M27.7242998,12.0721754 C30.5116532,9.30910626 30.5116532,4.83440142 27.7242998,2.07133231 C25.2576153,-0.373861592 21.3701206,-0.6917368 18.5334335,1.31821259 L18.4544996,1.37200685 C17.7440945,1.8757168 17.5812933,2.85379436 18.0894303,3.55311982 C18.5975673,4.25244527 19.5842411,4.41871846 20.2897129,3.91500851 L20.3686468,3.86121425 C21.9522582,2.74131544 24.1180071,2.9173694 25.4894837,4.2817876 C27.0434948,5.82225976 27.0434948,8.31635754 25.4894837,9.8568297 L19.9542438,15.3536256 C18.4002326,16.8940977 15.8842144,16.8940977 14.3302032,15.3536256 C12.9537933,13.9892074 12.7761921,11.8423271 13.9059335,10.277403 L13.9602006,10.1991568 C14.4683376,9.494941 14.300603,8.51686344 13.5951313,8.01804388 C12.8896595,7.51922433 11.8980524,7.68060712 11.3948488,8.37993258 L11.3405817,8.45817878 C9.30803373,11.2652614 9.62870271,15.118887 12.0953871,17.5640809 C14.8827406,20.32715 19.3967731,20.32715 22.1841265,17.5640809 L27.7242998,12.0721754 Z" id="Fill-1"></path>
            </g>
        </g>
    </g>
</svg>