<?xml version="1.0" encoding="UTF-8"?>
<svg width="22px" height="31px" viewBox="0 0 22 31" version="1.1" xmlns="http://www.w3.org/2000/svg" xmlns:xlink="http://www.w3.org/1999/xlink">
    <title>form_perso copy</title>
    <g id="Page-1" stroke="none" stroke-width="1" fill="none" fill-rule="evenodd">
        <g id="Pour-intégration" transform="translate(-283.000000, -1293.000000)" fill="#9B9B9B">
            <g id="form_perso-copy" transform="translate(283.000000, 1293.000000)">
                <path d="M5.03197245,16.3310054 C5.03197245,13.1139122 7.70486965,10.506707 11,10.506707 C14.296483,10.506707 16.9680275,13.1139122 16.9680275,16.3310054 L5.03197245,16.3310054 Z M11,3.19861176 C12.8098869,3.19861176 14.2775455,4.62960439 14.2775455,6.39590342 C14.2775455,8.16220244 12.8098869,9.59319508 11,9.59319508 C9.19011313,9.59319508 7.72380718,8.16220244 7.72380718,6.39590342 C7.72380718,4.62960439 9.19011313,3.19861176 11,3.19861176 L11,3.19861176 Z M11,0 C4.92511067,0 0,4.80649832 0,10.735085 C0,16.6636716 11,31 11,31 C11,31 22,16.6636716 22,10.735085 C22,4.80649832 17.0748893,0 11,0 L11,0 Z" id="Fill-1-Copy-5"></path>
            </g>
        </g>
    </g>
</svg>