<?xml version="1.0" encoding="UTF-8"?>
<svg width="9px" height="21px" viewBox="0 0 9 21" version="1.1" xmlns="http://www.w3.org/2000/svg" xmlns:xlink="http://www.w3.org/1999/xlink">
    <title>form_ital copy</title>
    <g id="Page-1" stroke="none" stroke-width="1" fill="none" fill-rule="evenodd">
        <g id="Pour-intégration" transform="translate(-88.000000, -1298.000000)" fill="#9B9B9B" fill-rule="nonzero">
            <g id="form_ital-copy" transform="translate(88.000000, 1298.000000)">
                <path d="M6.54,4.14 C7.68,4.14 8.61,3.21 8.61,2.07 C8.61,0.93 7.68,0 6.54,0 C5.4,0 4.47,0.93 4.47,2.07 C4.47,3.21 5.4,4.14 6.54,4.14 Z M2.76,20.52 C4.71,20.52 6.09,18.72 6.93,17.25 L6.51,17.01 C6.18,17.67 4.92,19.44 3.96,19.44 C3.66,19.44 3.42,19.32 3.42,18.81 C3.42,18.54 3.69,17.82 3.87,17.19 L7.14,6.48 C6.54,6.9 5.82,7.14 4.38,7.14 L1.29,7.14 L1.17,7.68 L3.03,7.68 L0.36,16.26 C0.18,16.86 0,17.55 0,18.03 L0.000561774883,18.0923509 C0.00955017301,18.5269204 0.162352941,20.52 2.76,20.52 Z" id="i"></path>
            </g>
        </g>
    </g>
</svg>