<?xml version="1.0" encoding="UTF-8"?>
<svg width="18px" height="23px" viewBox="0 0 18 23" version="1.1" xmlns="http://www.w3.org/2000/svg" xmlns:xlink="http://www.w3.org/1999/xlink">
    <title>form_exposant copy</title>
    <g id="Page-1" stroke="none" stroke-width="1" fill="none" fill-rule="evenodd">
        <g id="Pour-intégration" transform="translate(-141.000000, -1297.000000)" fill-rule="nonzero">
            <g id="Group" transform="translate(141.000000, 1297.000000)">
                <path d="M7.68,22.4 C7.76,22.4 7.828,22.372 7.884,22.316 C7.94,22.26 7.968,22.192 7.968,22.112 L7.968,22.112 L7.968,8.648 C7.968,8.568 8.008,8.528 8.088,8.528 L8.088,8.528 L12.384,8.528 C12.464,8.528 12.532,8.5 12.588,8.444 C12.644,8.388 12.672,8.32 12.672,8.24 L12.672,8.24 L12.672,5.888 C12.672,5.808 12.644,5.74 12.588,5.684 C12.532,5.628 12.464,5.6 12.384,5.6 L12.384,5.6 L0.288,5.6 C0.208,5.6 0.14,5.628 0.084,5.684 C0.028,5.74 1.42108547e-14,5.808 1.42108547e-14,5.888 L1.42108547e-14,5.888 L1.42108547e-14,8.24 C1.42108547e-14,8.32 0.028,8.388 0.084,8.444 C0.14,8.5 0.208,8.528 0.288,8.528 L0.288,8.528 L4.464,8.528 C4.544,8.528 4.584,8.568 4.584,8.648 L4.584,8.648 L4.584,22.112 C4.584,22.192 4.612,22.26 4.668,22.316 C4.724,22.372 4.792,22.4 4.872,22.4 L4.872,22.4 L7.68,22.4 Z" id="T" fill="#C5C5C5"></path>
                <path d="M16.94,8.4 C16.98,8.4 17.014,8.386 17.042,8.358 C17.07,8.33 17.084,8.296 17.084,8.256 L17.084,8.256 L17.084,0.144 C17.084,0.104 17.07,0.07 17.042,0.042 C17.014,0.014 16.98,0 16.94,0 L16.94,0 L15.188,0 C15.132,0 15.072,0.012 15.008,0.036 L15.008,0.036 L13.772,0.576 C13.7,0.608 13.664,0.664 13.664,0.744 L13.664,0.744 L13.688,2.004 C13.688,2.092 13.724,2.136 13.796,2.136 L13.796,2.136 L13.844,2.124 L15.02,1.848 C15.036,1.84 15.052,1.844 15.068,1.86 C15.084,1.876 15.092,1.892 15.092,1.908 L15.092,1.908 L15.092,8.256 C15.092,8.296 15.106,8.33 15.134,8.358 C15.162,8.386 15.196,8.4 15.236,8.4 L15.236,8.4 L16.94,8.4 Z" id="1" fill="#7D7D7D"></path>
            </g>
        </g>
    </g>
</svg>