<?xml version="1.0" encoding="UTF-8"?>
<svg width="20px" height="20px" viewBox="0 0 20 20" version="1.1" xmlns="http://www.w3.org/2000/svg" xmlns:xlink="http://www.w3.org/1999/xlink">
    <title>loupe filtre</title>
    <g id="Page-1" stroke="none" stroke-width="1" fill="none" fill-rule="evenodd">
        <g id="Pour-intégration" transform="translate(-319.000000, -872.000000)" fill="#6D7278" fill-rule="nonzero">
            <g id="loupe-filtre" transform="translate(319.000000, 872.000000)">
                <path d="M8.12539675,0 C12.6138972,0 16.2507935,3.63618611 16.2507935,8.12380999 C16.2507935,9.91651614 15.6687338,11.5725236 14.6882172,12.9160767 L19.6337712,17.8645706 C20.1220763,18.3527804 20.1220763,19.145633 19.6337712,19.6338427 C19.1454661,20.1220524 18.3524586,20.1220524 17.8641535,19.6338427 L12.9185995,14.6853488 C11.5747839,15.6695797 9.91845305,16.24762 8.12539675,16.24762 C3.63689633,16.24762 0,12.6114339 0,8.12380999 C0,3.63618611 3.63689633,0 8.12539675,0 Z M8,2.4 C4.90833333,2.4 2.4,4.90833333 2.4,8 C2.4,11.0916667 4.90833333,13.6 8,13.6 C11.0916667,13.6 13.6,11.0916667 13.6,8 C13.6,4.90833333 11.0916667,2.4 8,2.4 Z" id="Combined-Shape"></path>
            </g>
        </g>
    </g>
</svg>