<?xml version="1.0" encoding="UTF-8"?>
<svg width="25px" height="25px" viewBox="0 0 25 25" version="1.1" xmlns="http://www.w3.org/2000/svg" xmlns:xlink="http://www.w3.org/1999/xlink">
    <title>loupe_header</title>
    <g id="Page-1" stroke="none" stroke-width="1" fill="none" fill-rule="evenodd">
        <g id="Pour-intégration" transform="translate(-47.000000, -392.000000)" fill="#7F0038" fill-rule="nonzero">
            <g id="loupe_header" transform="translate(47.000000, 392.000000)">
                <path d="M10.1567459,0 C15.7673715,0 20.3134919,4.54523263 20.3134919,10.1547625 C20.3134919,12.3956452 19.5859173,14.4656544 18.3602715,16.1450959 L24.542214,22.3307133 C25.1525953,22.9409754 25.1525953,23.9320412 24.542214,24.5423034 C23.9318326,25.1525655 22.9405733,25.1525655 22.3301919,24.5423034 L16.1482494,18.356686 C14.4684799,19.5869746 12.3980663,20.309525 10.1567459,20.309525 C4.54612042,20.309525 0,15.7642923 0,10.1547625 C0,4.54523263 4.54612042,0 10.1567459,0 Z M10,3 C6.13541667,3 3,6.13541667 3,10 C3,13.8645833 6.13541667,17 10,17 C13.8645833,17 17,13.8645833 17,10 C17,6.13541667 13.8645833,3 10,3 Z" id="Combined-Shape"></path>
            </g>
        </g>
    </g>
</svg>