<?xml version="1.0" encoding="UTF-8"?>
<svg width="28px" height="31px" viewBox="0 0 28 31" version="1.1" xmlns="http://www.w3.org/2000/svg" xmlns:xlink="http://www.w3.org/1999/xlink">
    <title>pic Date</title>
    <g id="Page-1" stroke="none" stroke-width="1" fill="none" fill-rule="evenodd">
        <g id="Pour-intégration" transform="translate(-50.000000, -863.000000)" fill="#6D7278" fill-rule="nonzero">
            <g id="pic-Date" transform="translate(50.000000, 863.000000)">
                <path d="M27.125,11.625 L27.125,28.09375 C27.125,29.6982422 25.8232422,31 24.21875,31 L2.90625,31 C1.30175781,31 0,29.6982422 0,28.09375 L0,11.625 L27.125,11.625 Z M6.78125,23.25 L4.84375,23.25 C4.3109375,23.25 3.875,23.6859375 3.875,24.21875 L3.875,26.15625 C3.875,26.6890625 4.3109375,27.125 4.84375,27.125 L6.78125,27.125 C7.3140625,27.125 7.75,26.6890625 7.75,26.15625 L7.75,24.21875 C7.75,23.6859375 7.3140625,23.25 6.78125,23.25 Z M14.53125,23.25 L12.59375,23.25 C12.0609375,23.25 11.625,23.6859375 11.625,24.21875 L11.625,26.15625 C11.625,26.6890625 12.0609375,27.125 12.59375,27.125 L14.53125,27.125 C15.0640625,27.125 15.5,26.6890625 15.5,26.15625 L15.5,24.21875 C15.5,23.6859375 15.0640625,23.25 14.53125,23.25 Z M22.28125,23.25 L20.34375,23.25 C19.8109375,23.25 19.375,23.6859375 19.375,24.21875 L19.375,26.15625 C19.375,26.6890625 19.8109375,27.125 20.34375,27.125 L22.28125,27.125 C22.8140625,27.125 23.25,26.6890625 23.25,26.15625 L23.25,24.21875 C23.25,23.6859375 22.8140625,23.25 22.28125,23.25 Z M6.78125,15.5 L4.84375,15.5 C4.3109375,15.5 3.875,15.9359375 3.875,16.46875 L3.875,18.40625 C3.875,18.9390625 4.3109375,19.375 4.84375,19.375 L6.78125,19.375 C7.3140625,19.375 7.75,18.9390625 7.75,18.40625 L7.75,16.46875 C7.75,15.9359375 7.3140625,15.5 6.78125,15.5 Z M14.53125,15.5 L12.59375,15.5 C12.0609375,15.5 11.625,15.9359375 11.625,16.46875 L11.625,18.40625 C11.625,18.9390625 12.0609375,19.375 12.59375,19.375 L14.53125,19.375 C15.0640625,19.375 15.5,18.9390625 15.5,18.40625 L15.5,16.46875 C15.5,15.9359375 15.0640625,15.5 14.53125,15.5 Z M22.28125,15.5 L20.34375,15.5 C19.8109375,15.5 19.375,15.9359375 19.375,16.46875 L19.375,18.40625 C19.375,18.9390625 19.8109375,19.375 20.34375,19.375 L22.28125,19.375 C22.8140625,19.375 23.25,18.9390625 23.25,18.40625 L23.25,16.46875 C23.25,15.9359375 22.8140625,15.5 22.28125,15.5 Z M19.375,0 C20.4466797,0 21.3125,0.865820313 21.3125,1.9375 L21.3125,3.875 L24.21875,3.875 C25.8232422,3.875 27.125,5.17675781 27.125,6.78125 L27.125,9.6875 L0,9.6875 L0,6.78125 C0,5.17675781 1.30175781,3.875 2.90625,3.875 L5.8125,3.875 L5.8125,1.9375 C5.8125,0.865820313 6.67832031,0 7.75,0 C8.82167969,0 9.6875,0.865820313 9.6875,1.9375 L9.6875,3.875 L17.4375,3.875 L17.4375,1.9375 C17.4375,0.865820313 18.3033203,0 19.375,0 Z" id="Combined-Shape"></path>
            </g>
        </g>
    </g>
</svg>