<?xml version="1.0" encoding="UTF-8"?>
<svg width="24px" height="30px" viewBox="0 0 24 30" version="1.1" xmlns="http://www.w3.org/2000/svg" xmlns:xlink="http://www.w3.org/1999/xlink">
    <title>pic Perso</title>
    <g id="Page-1" stroke="none" stroke-width="1" fill="none" fill-rule="evenodd">
        <g id="Pour-intégration" transform="translate(-96.000000, -864.000000)" fill="#6D7278">
            <g id="Group-7" transform="translate(96.000000, 864.000000)">
                <path d="M11.965504,13.64 C15.735104,13.64 18.785504,10.5896 18.785504,6.82 C18.785504,3.04916 15.735104,1.63424829e-13 11.965504,1.63424829e-13 C8.195904,1.63424829e-13 5.145504,3.04916 5.145504,6.82 C5.145504,10.5896 8.195904,13.64 11.965504,13.64" id="Fill-1"></path>
                <path d="M23.93076,24.819468 C21.91948,21.099468 18.786,16.223788 11.966,16.223788 C5.146,16.223788 2.01252,21.099468 9.59232693e-14,24.819468 C3.2054,28.617588 6.79396,29.945628 11.966,29.945628 C17.1368,29.945628 20.7266,28.607668 23.93076,24.819468" id="Fill-3"></path>
            </g>
        </g>
    </g>
</svg>