<?xml version="1.0" encoding="UTF-8"?>
<svg width="24px" height="31px" viewBox="0 0 24 31" version="1.1" xmlns="http://www.w3.org/2000/svg" xmlns:xlink="http://www.w3.org/1999/xlink">
    <title>Combined Shape</title>
    <g id="Symbols" stroke="none" stroke-width="1" fill="none" fill-rule="evenodd">
        <g id="pic-Lieu" fill="#6D7278" fill-rule="nonzero">
            <path d="M11.78,0 C18.2835417,0 23.56,5.22054144 23.56,11.6551623 C23.56,16.9606893 16.3815625,26.4062271 13.2340937,30.3034219 C12.4794375,31.2321927 11.0805625,31.2321927 10.3259062,30.3034219 C7.1784375,26.4062271 -5.5067062e-14,16.9606893 -5.5067062e-14,11.6551623 C-5.5067062e-14,5.22054144 5.27645833,0 11.78,0 Z M11.78,7.77010819 C9.61419792,7.77010819 7.85333333,9.51231214 7.85333333,11.6551623 C7.85333333,13.7980124 9.61419792,15.5402164 11.78,15.5402164 C13.9458021,15.5402164 15.7066667,13.7980124 15.7066667,11.6551623 C15.7066667,9.51231214 13.9458021,7.77010819 11.78,7.77010819 Z" id="Combined-Shape"></path>
        </g>
    </g>
</svg>