<?xml version="1.0" encoding="UTF-8"?>
<svg width="20px" height="20px" viewBox="0 0 20 20" version="1.1" xmlns="http://www.w3.org/2000/svg" xmlns:xlink="http://www.w3.org/1999/xlink">
    <title>pub_neutre</title>
    <g id="Page-1" stroke="none" stroke-width="1" fill="none" fill-rule="evenodd">
        <g id="Pour-intégration" transform="translate(-441.000000, -1149.000000)" fill="#C00055" fill-rule="nonzero">
            <g id="pub_neutre" transform="translate(441.000000, 1149.000000)">
                <path d="M9.5234375,13.2734375 C9.09765625,13.6992188 8.40234375,13.6992188 7.9765625,13.2734375 L5.4765625,10.7734375 C5.05078125,10.3476562 5.05078125,9.65234375 5.4765625,9.2265625 C5.90234375,8.80078125 6.59765625,8.80078125 7.0234375,9.2265625 L8.75,10.953125 L12.9765625,6.7265625 C13.4023438,6.30078125 14.0976562,6.30078125 14.5234375,6.7265625 C14.9492188,7.15234375 14.9492188,7.84765625 14.5234375,8.2734375 L9.5234375,13.2734375 Z M20,10 C20,15.5234375 15.5234375,20 10,20 C4.4765625,20 0,15.5234375 0,10 C0,4.4765625 4.4765625,0 10,0 C15.5234375,0 20,4.4765625 20,10 Z M10,1.875 C5.51171875,1.875 1.875,5.51171875 1.875,10 C1.875,14.4882812 5.51171875,18.125 10,18.125 C14.4882812,18.125 18.125,14.4882812 18.125,10 C18.125,5.51171875 14.4882812,1.875 10,1.875 Z" id="rond-valid"></path>
            </g>
        </g>
    </g>
</svg>