<?xml version="1.0" encoding="UTF-8"?>
<svg width="15px" height="20px" viewBox="0 0 15 20" version="1.1" xmlns="http://www.w3.org/2000/svg" xmlns:xlink="http://www.w3.org/1999/xlink">
    <title>lock_neutre</title>
    <defs>
        <polygon id="path-1" points="0 3.31674958e-06 14.8590381 3.31674958e-06 14.8590381 19.9834163 0 19.9834163"></polygon>
    </defs>
    <g id="Page-1" stroke="none" stroke-width="1" fill="none" fill-rule="evenodd">
        <g id="Pour-intégration" transform="translate(-613.000000, -1149.000000)">
            <g id="Group-3" transform="translate(613.000000, 1149.000000)">
                <mask id="mask-2" fill="white">
                    <use xlink:href="#path-1"></use>
                </mask>
                <g id="Clip-2"></g>
                <path d="M12.7363184,9.3698209 L5.04145937,9.3698209 L5.04145937,4.77612272 C5.04145937,3.3101194 6.22885572,2.12272305 7.69485904,2.12272305 C9.16086235,2.12272305 10.3482587,3.3101194 10.3482587,4.77612272 L10.3482587,6.36816252 C10.3482587,6.9552272 10.8225539,7.42952239 11.4096186,7.42952239 C11.9966833,7.42952239 12.4709784,6.9552272 12.4709784,6.36816252 L12.4709784,4.77612272 C12.4709784,2.1393068 10.331675,3.31674958e-06 7.69485904,3.31674958e-06 C5.05804312,3.31674958e-06 2.91873964,2.1393068 2.91873964,4.77612272 L2.91873964,9.3698209 L2.12271973,9.3698209 C0.951907131,9.3698209 0,10.321728 0,11.4925406 L0,17.8606998 C0,19.0315124 0.951907131,19.9834196 2.12271973,19.9834196 L12.7363184,19.9834196 C13.907131,19.9834196 14.8590381,19.0315124 14.8590381,17.8606998 L14.8590381,11.4925406 C14.8590381,10.321728 13.907131,9.3698209 12.7363184,9.3698209" id="Fill-1" fill="#C00055" mask="url(#mask-2)"></path>
            </g>
        </g>
    </g>
</svg>