<?xml version="1.0" encoding="UTF-8"?>
<svg width="25px" height="15px" viewBox="0 0 25 15" version="1.1" xmlns="http://www.w3.org/2000/svg" xmlns:xlink="http://www.w3.org/1999/xlink">
    <title>b_voir</title>
    <g id="Page-1" stroke="none" stroke-width="1" fill="none" fill-rule="evenodd">
        <g id="Pour-intégration" transform="translate(-369.000000, -683.000000)" fill="#C00055">
            <g id="b_voir" transform="translate(369.000000, 683.000000)">
                <path d="M12.0406295,0 C18.4712725,0 23.5418907,6.59762757 23.75541,6.87817737 L24.1666667,7.42233101 L23.7832603,7.98719638 C23.5864513,8.27527773 18.9326598,15 12.2671456,15 C12.2179433,15 12.1696694,15 12.1195388,14.9990586 C5.41317737,14.8992657 0.610850748,8.47768782 0.410328314,8.20372811 L1.49213975e-13,7.64733572 L0.405686591,7.08529467 L0.421069126,7.06409842 L0.477846401,6.98738879 C1.14298507,6.09885613 5.93524906,0 12.0406295,0 Z M12.0824514,3.33333333 C10.0107792,3.33333333 8.33333333,5.19738132 8.33333333,7.49852993 C8.33333333,9.80065859 10.0107792,11.6666667 12.0824514,11.6666667 C14.1541235,11.6666667 15.8333333,9.80065859 15.8333333,7.49852993 C15.8333333,5.19738132 14.1541235,3.33333333 12.0824514,3.33333333 Z" id="Combined-Shape"></path>
            </g>
        </g>
    </g>
</svg>